<svg width="32" height="32" viewBox="0 0 32 32" fill="none" xmlns="http://www.w3.org/2000/svg">
<circle cx="16" cy="16" r="16" fill="#25D366"/>
<path d="M25.96 23.434c-.373-.186-2.207-1.09-2.548-1.213-.341-.124-.59-.186-.838.186-.249.373-.965 1.213-1.185 1.463-.217.249-.437.28-.81.093-.373-.186-1.575-.58-3.003-1.85-1.11-.991-1.862-2.215-2.082-2.589-.217-.373-.023-.574.163-.76.168-.167.373-.435.56-.654.186-.22.249-.373.373-.622.124-.249.062-.466-.03-.654-.093-.186-.838-2.021-1.147-2.773-.303-.728-.61-.629-.838-.641l-.714-.012c-.248 0-.653.093-.996.435-.342.342-1.306 1.276-1.306 3.11 0 1.834 1.336 3.605 1.523 3.855.186.249 2.633 4.023 6.382 5.202.893.273 1.588.437 2.133.56.896.187 1.714.16 2.36.097  .72-.068 2.207-.903 2.522-1.775.312-.872.312-1.617.218-1.773-.09-.153-.341-.246-.714-.433z" fill="#fff"/>
</svg>